<?xml version="1.0" encoding="utf-8"?>
<!-- Generator: Adobe Illustrator 24.2.0, SVG Export Plug-In . SVG Version: 6.00 Build 0)  -->
<svg version="1.1" id="Capa_1" xmlns="http://www.w3.org/2000/svg" xmlns:xlink="http://www.w3.org/1999/xlink" x="0px" y="0px"
	 viewBox="0 0 512 512" style="enable-background:new 0 0 512 512;" xml:space="preserve">
<style type="text/css">
	.st0{fill:none;stroke:#FFFFFF;stroke-width:20;stroke-miterlimit:10;}
</style>
<path class="st0" d="M499,239c0-17.6-5.8-31.3-16.5-42.1c-32.6-36.6-110-38.4-204.3-38.4c0,0,0,0,0,0c0,0,0,0,0,0c0,0,0,0,0,0
	c-57.7,0-110.3,8.1-149.6,21.3l-18.3-36.4H72.2H59.8l20.8,59.8c-2.7,2-5.2,4-7.5,6.1v-18.1H59.3V219l-32.8-30l-9.5,9.7l36.7,33.6H13
	v13.4h34.5l-25.8,29.9l10.6,8.6l27-31.2v33.9h13.8v-18.1c2.5,2.3,5.4,4.6,8.4,6.8l-21.7,59.1h12.7h38l19.4-36
	c21.9,7.3,47.9,13,76.6,16.6l10.3,19.5h153l10.2-19.3C450.6,307.9,498.9,288.1,499,239z"/>
</svg>
